# xmcd
# Track frame offsets:
# 150
# 12546
# 32151
# 48197
# 64559
# 79916
# 96383
# 111046
# 128991
# 146804
# 163205
# 178783
# 195877
# 212174
# 227734
#
# Disc length: 3265 seconds
# Revision: 0
# Processed by: cddbd v1.5.1PL0 Copyright (c) Steve Scherf et al.
# Submitted via: VisiTrax 2.9.10.228 - For more info visit www.synapsa.com
#
DISCID=d30cbf0f
DTITLE=McBride, Martina - CB90026
DYEAR=1900
DGENRE=Karaoke
TTITLE0=My Baby Loves Me
TTITLE1=Life #9
TTITLE2=Independence Day
TTITLE3=Heart Trouble
TTITLE4=Safe In The Arms Of Love
TTITLE5=Wild Angels
TTITLE6=Cry On The Shoulder Of The Road
TTITLE7=That's Me
TTITLE8=Where I Used To Have A Heart
TTITLE9=Swingin' Doors
TTITLE10=Valentine
TTITLE11=Broken Wing, A
TTITLE12=Happy Girl
TTITLE13=Wrong Again
TTITLE14=Be That Way
EXTD=
EXTT0=
EXTT1=
EXTT2=
EXTT3=
EXTT4=
EXTT5=
EXTT6=
EXTT7=
EXTT8=
EXTT9=
EXTT10=
EXTT11=
EXTT12=
EXTT13=
EXTT14=
PLAYORDER=
